<?xml version="1.0" standalone="no"?>
<!DOCTYPE svg PUBLIC "-//W3C//DTD SVG 20010904//EN"
 "http://www.w3.org/TR/2001/REC-SVG-20010904/DTD/svg10.dtd">
<svg version="1.0" xmlns="http://www.w3.org/2000/svg"
 width="512.000000pt" height="512.000000pt" viewBox="0 0 512.000000 512.000000"
 preserveAspectRatio="xMidYMid meet">
<metadata>
Created by potrace 1.11, written by Peter Selinger 2001-2013
</metadata>
<g transform="translate(0.000000,512.000000) scale(0.100000,-0.100000)"
fill="#000000" stroke="none">
<path d="M2398 4365 c-2 -2 -26 -7 -53 -10 -28 -3 -75 -13 -105 -22 -30 -8
-59 -16 -65 -17 -72 -14 -237 -88 -337 -152 -347 -222 -563 -558 -626 -974
-12 -82 -5 -351 11 -430 22 -104 23 -107 47 -180 94 -281 327 -570 590 -731
22 -13 111 -15 700 -14 546 0 680 3 700 14 84 45 273 211 363 319 39 46 129
187 159 247 142 286 173 646 85 971 -82 299 -286 577 -555 757 -232 155 -470
226 -763 226 -81 0 -149 -2 -151 -4z"/>
<path d="M1983 1649 c-84 -17 -146 -89 -146 -169 0 -61 27 -115 76 -154 l39
-31 586 -3 c511 -2 592 -1 628 13 145 55 158 253 21 324 l-48 24 -564 1 c-310
1 -577 -2 -592 -5z"/>
<path d="M2203 1068 c15 -126 92 -233 207 -287 47 -22 69 -26 150 -26 85 0
101 3 155 29 108 53 187 162 201 274 l6 52 -362 0 -362 0 5 -42z"/>
</g>
</svg>
